# xmcd CD database file
#
# Track frame offsets:
#	150
#	19982
#	38242
#	61017
#	77975
#	88990
#	111025
#	132970
#	145527
#	160705
#	177372
#	203082
#
# Disc length: 2852 seconds
#
# Revision: 0
# Processed by: cddbd v1.5.1PL0 Copyright (c) Steve Scherf et al.
# Submitted via: CDex 1.51
#
DISCID=9b0b220c
DTITLE=enya - MEMORY OF TREES
DYEAR=1995
DGENRE=Other
TTITLE0=THE MEMORY OF TREES
TTITLE1=ANYWHERE IS
TTITLE2=PAX DEORUM
TTITLE3=ATHAIR AR NEAMH
TTITLE4=FROM WHERE I AM
TTITLE5=CHINA ROSES
TTITLE6=HOPE HAS A PLACE
TTITLE7=TEA-HOUSE MOON
TTITLE8=ONCE YOU HAVE GOLD
TTITLE9=SONADORA
TTITLE10=ON MY WAY HOME
TTITLE11=オリエル・ウィンドウ
EXTD=YEAR: 1995
EXTT0=
EXTT1=
EXTT2=
EXTT3=
EXTT4=
EXTT5=
EXTT6=
EXTT7=
EXTT8=
EXTT9=
EXTT10=
EXTT11=
PLAYORDER=
